<svg width="22" height="22" viewBox="0 0 22 22" fill="none" xmlns="http://www.w3.org/2000/svg">
<path fill-rule="evenodd" clip-rule="evenodd" d="M11 22C17.0751 22 22 17.0751 22 11C22 4.92487 17.0751 0 11 0C4.92487 0 0 4.92487 0 11C0 17.0751 4.92487 22 11 22ZM11 3C11.5523 3 12 3.44772 12 4V10H18C18.5523 10 19 10.4477 19 11C19 11.5523 18.5523 12 18 12H12V18C12 18.5523 11.5523 19 11 19C10.4477 19 10 18.5523 10 18V12H4C3.44771 12 3 11.5523 3 11C3 10.4477 3.44771 10 4 10H10V4C10 3.44772 10.4477 3 11 3Z" fill="#004E8C"/>
</svg>
